<?xml version="1.0" encoding="utf-8"?>
<!-- Generator: Adobe Illustrator 25.0.1, SVG Export Plug-In . SVG Version: 6.00 Build 0)  -->
<svg version="1.1" xmlns="http://www.w3.org/2000/svg" xmlns:xlink="http://www.w3.org/1999/xlink" x="0px" y="0px"
	 viewBox="0 0 294.1 74.8" style="enable-background:new 0 0 294.1 74.8;" xml:space="preserve">
<style type="text/css">
	.st0{display:none;}
	.st1{fill:#36BDB1;}
	.st2{fill:#6BBE45;}
	.st3{fill:#037BB9;}
	.st4{display:inline;fill:#F1F2F2;}
</style>
<g id="Background" class="st0">
</g>
<g id="Layer_1">
	<path d="M81.4,31.5v-8.3h5.6V11.3h13.8v11.9h7v8.3h-7v18.2c0,2.8,0.4,4.6,1.1,5.5c0.7,0.9,2.1,1.3,4.1,1.3c0.4,0,0.8,0,1,0
		c0.2,0,0.5,0,0.7-0.1v8.8c-1.4,0.3-2.8,0.5-4.2,0.7c-1.4,0.2-2.7,0.2-4,0.2c-4.8,0-8-1.2-9.8-3.5c-1.8-2.3-2.6-7.3-2.6-14.9V31.5
		H81.4z"/>
	<path d="M121.9,44.2c0,3.8,0.7,6.8,2.1,8.8c1.4,2.1,3.4,3.1,6,3.1c2.6,0,4.7-1,6.1-3.1c1.4-2.1,2.1-5,2.1-8.8
		c0-3.8-0.7-6.7-2.1-8.8c-1.4-2.1-3.5-3.1-6.1-3.1c-2.6,0-4.6,1-6,3.1C122.6,37.4,121.9,40.4,121.9,44.2 M107.8,44.2
		c0-7,2-12.5,5.9-16.5c3.9-4,9.4-6,16.3-6c7,0,12.4,2,16.4,6c4,4,5.9,9.5,5.9,16.5c0,7-2,12.5-5.9,16.5c-4,4-9.4,6-16.4,6
		c-7,0-12.5-2-16.4-5.9C109.8,56.7,107.8,51.2,107.8,44.2"/>
	<path d="M151.4,31.5v-8.3h5.6V11.3h13.8v11.9h7v8.3h-7v18.2c0,2.8,0.4,4.6,1.1,5.5c0.7,0.9,2.1,1.3,4.1,1.3c0.4,0,0.8,0,1,0
		c0.2,0,0.5,0,0.7-0.1v8.8c-1.4,0.3-2.8,0.5-4.2,0.7c-1.4,0.2-2.7,0.2-4,0.2c-4.8,0-8-1.2-9.8-3.5c-1.8-2.3-2.6-7.3-2.6-14.9V31.5
		H151.4z"/>
	<path d="M204.1,45.4c-1.1,0.7-2.9,1.3-5.6,1.9c-1.3,0.3-2.3,0.5-2.9,0.7c-1.6,0.5-2.8,1.1-3.5,1.8c-0.7,0.7-1,1.7-1,2.9
		c0,1.5,0.5,2.7,1.4,3.6c0.9,0.9,2.1,1.4,3.7,1.4c2.3,0,4.3-0.7,5.7-2c1.5-1.4,2.2-3.1,2.2-5.3V45.4z M219.3,65.2h-14
		c-0.2-0.7-0.3-1.4-0.4-2.1c-0.1-0.7-0.2-1.5-0.3-2.2c-1.9,1.9-4,3.4-6.2,4.3c-2.2,0.9-4.6,1.4-7.2,1.4c-4,0-7.2-1.1-9.6-3.3
		c-2.4-2.2-3.5-5.2-3.5-9c0-3.5,0.9-6.3,2.8-8.5c1.8-2.2,4.6-3.7,8.4-4.6c2.1-0.5,4.7-1,7.8-1.5c4.7-0.8,7.1-1.9,7.1-3.4v-1
		c0-1.2-0.5-2.1-1.4-2.8c-0.9-0.6-2.3-0.9-4.1-0.9c-2,0-3.5,0.4-4.7,1.2c-1.1,0.8-1.9,2-2.1,3.5h-12.7c0.7-4.7,2.6-8.3,5.9-10.6
		c3.3-2.3,7.9-3.5,13.9-3.5c3.7,0,6.9,0.4,9.4,1.4c2.6,0.9,4.6,2.3,6,4.1c1,1.3,1.7,2.9,2.1,4.7c0.4,1.8,0.6,4.7,0.6,8.8V57
		c0,1.9,0.2,3.4,0.5,4.5c0.3,1.1,0.9,1.8,1.6,2.1V65.2z"/>
	<path d="M222.4,65.2v-42h13.2v7.3c1.5-2.9,3.3-5,5.5-6.3c2.2-1.3,5-2,8.3-2.1v13.6c-0.6-0.1-1.2-0.1-1.8-0.2
		c-0.6,0-1.1-0.1-1.6-0.1c-2.1,0-3.9,0.3-5.2,0.9c-1.4,0.6-2.5,1.6-3.3,2.9c-0.5,0.9-0.9,2.1-1.1,3.8c-0.2,1.6-0.3,4.3-0.3,7.9v14.1
		H222.4z"/>
	<path d="M275.7,45.4c-1.1,0.7-2.9,1.3-5.6,1.9c-1.3,0.3-2.3,0.5-2.9,0.7c-1.6,0.5-2.8,1.1-3.5,1.8c-0.7,0.7-1,1.7-1,2.9
		c0,1.5,0.5,2.7,1.4,3.6c0.9,0.9,2.1,1.4,3.7,1.4c2.3,0,4.3-0.7,5.7-2c1.5-1.4,2.2-3.1,2.2-5.3V45.4z M290.9,65.2h-14
		c-0.2-0.7-0.3-1.4-0.4-2.1c-0.1-0.7-0.2-1.5-0.3-2.2c-1.9,1.9-4,3.4-6.2,4.3c-2.2,0.9-4.6,1.4-7.2,1.4c-4,0-7.2-1.1-9.6-3.3
		c-2.4-2.2-3.5-5.2-3.5-9c0-3.5,0.9-6.3,2.8-8.5c1.8-2.2,4.6-3.7,8.4-4.6c2.1-0.5,4.7-1,7.8-1.5c4.7-0.8,7.1-1.9,7.1-3.4v-1
		c0-1.2-0.5-2.1-1.4-2.8c-0.9-0.6-2.3-0.9-4.1-0.9c-2,0-3.5,0.4-4.7,1.2c-1.1,0.8-1.9,2-2.1,3.5h-12.7c0.7-4.7,2.6-8.3,5.9-10.6
		c3.3-2.3,7.9-3.5,13.9-3.5c3.7,0,6.9,0.4,9.4,1.4c2.6,0.9,4.6,2.3,6,4.1c1,1.3,1.7,2.9,2.1,4.7c0.4,1.8,0.6,4.7,0.6,8.8V57
		c0,1.9,0.2,3.4,0.5,4.5c0.3,1.1,0.9,1.8,1.6,2.1V65.2z"/>
	<path class="st1" d="M47.8,21.6c0-7.5-3.6-14.1-9.1-18.3c-5.5,4.2-9.1,10.8-9.1,18.3c0,7.5,3.6,14.1,9.1,18.3
		C44.2,35.6,47.8,29,47.8,21.6"/>
	<path class="st2" d="M24.6,35.7c-6.8-3.9-14.6-4.1-21.3-1.4c0.9,7.2,5.1,13.9,11.8,17.8c6.8,3.9,14.6,4.1,21.3,1.4
		C35.5,46.3,31.3,39.6,24.6,35.7"/>
	<path class="st3" d="M52.3,35.7c-4.6,2.7-8.3,6.8-10.3,11.8c-1,2.4-1.5,4.8-1.7,7.3c-0.3,2.9-0.4,5.9-0.4,8.8l0,8H41
		c0-0.2,0.1-4.8,0.2-5.6c0.1-1.1,0.3-2.3,0.5-3.4c0.4-1.7,1.1-3.5,2.4-4.8c1.5-1.4,3.5-2,5.4-2.3c2.2-0.4,4.3-0.5,6.4-1.1
		c2-0.5,4-1.3,5.8-2.4c6.8-3.9,10.9-10.6,11.8-17.8C67,31.6,59.1,31.8,52.3,35.7"/>
</g>
<g id="Clear_space" class="st0">
	<path class="st4" d="M-11.9,94.4c0-7.5,2.1-13.3,6.4-17.5c4.3-4.2,10.2-6.3,17.8-6.3c7.6,0,13.6,2.1,17.9,6.3
		c4.3,4.2,6.5,10,6.5,17.5c0,7.5-2.2,13.3-6.5,17.5c-4.3,4.2-10.3,6.3-17.9,6.3c-7.6,0-13.6-2.1-17.9-6.3
		C-9.8,107.7-11.9,101.9-11.9,94.4 M3.4,94.4c0,4.1,0.8,7.2,2.3,9.4c1.5,2.2,3.7,3.3,6.6,3.3c2.9,0,5.1-1.1,6.6-3.3
		c1.6-2.2,2.3-5.3,2.3-9.4c0-4-0.8-7.1-2.3-9.3c-1.6-2.2-3.8-3.3-6.6-3.3c-2.9,0-5.1,1.1-6.6,3.3C4.2,87.2,3.4,90.3,3.4,94.4"/>
	<path class="st4" d="M132-65.8c0-7.5,2.1-13.3,6.4-17.5c4.3-4.2,10.2-6.3,17.8-6.3c7.6,0,13.6,2.1,17.9,6.3
		c4.3,4.2,6.5,10,6.5,17.5c0,7.5-2.2,13.3-6.5,17.5c-4.3,4.2-10.3,6.3-17.9,6.3c-7.6,0-13.6-2.1-17.9-6.3
		C134.2-52.5,132-58.4,132-65.8 M147.4-65.8c0,4.1,0.8,7.2,2.3,9.4c1.5,2.2,3.7,3.3,6.6,3.3c2.9,0,5.1-1.1,6.6-3.3
		c1.6-2.2,2.3-5.3,2.3-9.4c0-4-0.8-7.1-2.3-9.3c-1.6-2.2-3.8-3.3-6.6-3.3c-2.9,0-5.1,1.1-6.6,3.3C148.2-73,147.4-69.9,147.4-65.8"/>
	<path class="st4" d="M124,140.7c0-7.5,2.1-13.3,6.4-17.5c4.3-4.2,10.2-6.3,17.8-6.3c7.6,0,13.6,2.1,17.9,6.3
		c4.3,4.2,6.5,10,6.5,17.5c0,7.5-2.2,13.3-6.5,17.5c-4.3,4.2-10.3,6.3-17.9,6.3c-7.6,0-13.6-2.1-17.9-6.3
		C126.2,154,124,148.2,124,140.7 M139.4,140.7c0,4.1,0.8,7.2,2.3,9.4c1.5,2.2,3.7,3.3,6.6,3.3c2.9,0,5.1-1.1,6.6-3.3
		c1.6-2.2,2.3-5.3,2.3-9.4c0-4-0.8-7.1-2.3-9.3c-1.6-2.2-3.8-3.3-6.6-3.3c-2.9,0-5.1,1.1-6.6,3.3
		C140.2,133.5,139.4,136.7,139.4,140.7"/>
	<path class="st4" d="M265.3,94.4c0-7.5,2.1-13.3,6.4-17.5c4.3-4.2,10.2-6.3,17.8-6.3c7.6,0,13.6,2.1,17.9,6.3
		c4.3,4.2,6.5,10,6.5,17.5c0,7.5-2.2,13.3-6.5,17.5c-4.3,4.2-10.3,6.3-17.9,6.3c-7.6,0-13.6-2.1-17.9-6.3
		C267.4,107.7,265.3,101.9,265.3,94.4 M280.7,94.4c0,4.1,0.8,7.2,2.3,9.4c1.5,2.2,3.7,3.3,6.6,3.3c2.9,0,5.1-1.1,6.6-3.3
		c1.6-2.2,2.3-5.3,2.3-9.4c0-4-0.8-7.1-2.3-9.3c-1.6-2.2-3.8-3.3-6.6-3.3c-2.9,0-5.1,1.1-6.6,3.3C281.4,87.2,280.7,90.3,280.7,94.4"
		/>
</g>
</svg>
