<svg xmlns="http://www.w3.org/2000/svg" xmlns:xlink="http://www.w3.org/1999/xlink" version="1.1" x="0px" y="0px" viewBox="0 0 80 80" xml:space="preserve" width="40px" height="40px">
	<style type="text/css">
		.st1{fill:#36BDB1;}
		.st2{fill:#6BBE45;}
		.st3{fill:#037BB9;}
	</style>
	<g id="Totara_Leaves">
		<path class="st1" d="M47.8,21.6c0-7.5-3.6-14.1-9.1-18.3c-5.5,4.2-9.1,10.8-9.1,18.3c0,7.5,3.6,14.1,9.1,18.3    C44.2,35.6,47.8,29,47.8,21.6"/>
		<path class="st2" d="M24.6,35.7c-6.8-3.9-14.6-4.1-21.3-1.4c0.9,7.2,5.1,13.9,11.8,17.8c6.8,3.9,14.6,4.1,21.3,1.4    C35.5,46.3,31.3,39.6,24.6,35.7"/>
		<path class="st3" d="M52.3,35.7c-4.6,2.7-8.3,6.8-10.3,11.8c-1,2.4-1.5,4.8-1.7,7.3c-0.3,2.9-0.4,5.9-0.4,8.8l0,8H41    c0-0.2,0.1-4.8,0.2-5.6c0.1-1.1,0.3-2.3,0.5-3.4c0.4-1.7,1.1-3.5,2.4-4.8c1.5-1.4,3.5-2,5.4-2.3c2.2-0.4,4.3-0.5,6.4-1.1    c2-0.5,4-1.3,5.8-2.4c6.8-3.9,10.9-10.6,11.8-17.8C67,31.6,59.1,31.8,52.3,35.7"/>
	</g>
</svg>